<svg width="1200" height="720" viewBox="0 0 1200 720" fill="none" xmlns="http://www.w3.org/2000/svg">
  <rect width="1200" height="720" rx="32" fill="#F8FAFC"/>
  <rect x="48" y="48" width="1104" height="624" rx="24" fill="white" stroke="#E2E8F0" stroke-width="2"/>
  <rect x="72" y="96" width="1056" height="44" rx="12" fill="#F8FAFC"/>
  <text x="96" y="124" fill="#94A3B8" font-family="Inter, sans-serif" font-size="14" font-weight="600">PHOTO</text>
  <text x="188" y="124" fill="#94A3B8" font-family="Inter, sans-serif" font-size="14" font-weight="600">NAME</text>
  <text x="428" y="124" fill="#94A3B8" font-family="Inter, sans-serif" font-size="14" font-weight="600">STATUS</text>
  <text x="612" y="124" fill="#94A3B8" font-family="Inter, sans-serif" font-size="14" font-weight="600">INQUIRIES</text>
  <text x="736" y="124" fill="#94A3B8" font-family="Inter, sans-serif" font-size="14" font-weight="600">SPECIES</text>
  <text x="880" y="124" fill="#94A3B8" font-family="Inter, sans-serif" font-size="14" font-weight="600">LISTED</text>
  <text x="1008" y="124" fill="#94A3B8" font-family="Inter, sans-serif" font-size="14" font-weight="600">ACTIONS</text>

  <g font-family="Inter, sans-serif" font-size="15">
    <rect x="72" y="152" width="1056" height="56" fill="#FFFFFF"/>
    <rect x="100" y="162" width="72" height="36" rx="8" fill="#E2E8F0"/>
    <text x="188" y="188" fill="#0F172A" font-weight="600">Marble</text>
    <rect x="408" y="166" width="92" height="28" rx="14" fill="#DCFCE7"/>
    <text x="428" y="186" fill="#047857" font-weight="700" font-size="13">Available</text>
    <text x="618" y="186" fill="#0F172A" font-weight="600">3</text>
    <text x="736" y="186" fill="#334155">Cat</text>
    <text x="880" y="186" fill="#334155">12/02/2025</text>
    <rect x="1020" y="168" width="74" height="28" rx="8" fill="#ECFEFF" stroke="#99F6E4" stroke-width="1.5"/>
    <text x="1035" y="187" fill="#0F172A" font-weight="700" font-size="13">Manage</text>
  </g>

  <g font-family="Inter, sans-serif" font-size="15">
    <rect x="72" y="208" width="1056" height="56" fill="#F8FAFC"/>
    <rect x="100" y="218" width="72" height="36" rx="8" fill="#E2E8F0"/>
    <text x="188" y="244" fill="#0F172A" font-weight="600">Scout</text>
    <rect x="408" y="222" width="66" height="28" rx="14" fill="#FEF9C3"/>
    <text x="420" y="242" fill="#92400E" font-weight="700" font-size="13">Hold</text>
    <text x="618" y="242" fill="#0F172A" font-weight="600">1</text>
    <text x="736" y="242" fill="#334155">Dog</text>
    <text x="880" y="242" fill="#334155">11/25/2025</text>
    <rect x="1020" y="224" width="74" height="28" rx="8" fill="#ECFEFF" stroke="#99F6E4" stroke-width="1.5"/>
    <text x="1035" y="243" fill="#0F172A" font-weight="700" font-size="13">Manage</text>
  </g>

  <g font-family="Inter, sans-serif" font-size="15">
    <rect x="72" y="264" width="1056" height="56" fill="#FFFFFF"/>
    <rect x="100" y="274" width="72" height="36" rx="8" fill="#E2E8F0"/>
    <text x="188" y="300" fill="#0F172A" font-weight="600">Juniper</text>
    <rect x="408" y="278" width="92" height="28" rx="14" fill="#DCFCE7"/>
    <text x="428" y="298" fill="#047857" font-weight="700" font-size="13">Available</text>
    <text x="618" y="298" fill="#0F172A" font-weight="600">0</text>
    <text x="736" y="298" fill="#334155">Cat</text>
    <text x="880" y="298" fill="#334155">11/20/2025</text>
    <rect x="1020" y="280" width="74" height="28" rx="8" fill="#ECFEFF" stroke="#99F6E4" stroke-width="1.5"/>
    <text x="1035" y="299" fill="#0F172A" font-weight="700" font-size="13">Manage</text>
  </g>

  <g font-family="Inter, sans-serif" font-size="15">
    <rect x="72" y="320" width="1056" height="56" fill="#F8FAFC"/>
    <rect x="100" y="330" width="72" height="36" rx="8" fill="#E2E8F0"/>
    <text x="188" y="356" fill="#0F172A" font-weight="600">Pixel</text>
    <rect x="408" y="334" width="92" height="28" rx="14" fill="#E2E8F0"/>
    <text x="430" y="354" fill="#475569" font-weight="700" font-size="13">Adopted</text>
    <text x="618" y="354" fill="#0F172A" font-weight="600">5</text>
    <text x="736" y="354" fill="#334155">Cat</text>
    <text x="880" y="354" fill="#334155">11/10/2025</text>
    <rect x="1020" y="336" width="74" height="28" rx="8" fill="#ECFEFF" stroke="#99F6E4" stroke-width="1.5"/>
    <text x="1035" y="355" fill="#0F172A" font-weight="700" font-size="13">Manage</text>
  </g>

  <g font-family="Inter, sans-serif" font-size="15">
    <rect x="72" y="376" width="1056" height="56" fill="#FFFFFF"/>
    <rect x="100" y="386" width="72" height="36" rx="8" fill="#E2E8F0"/>
    <text x="188" y="412" fill="#0F172A" font-weight="600">Luna</text>
    <rect x="408" y="390" width="92" height="28" rx="14" fill="#DCFCE7"/>
    <text x="428" y="410" fill="#047857" font-weight="700" font-size="13">Available</text>
    <text x="618" y="410" fill="#0F172A" font-weight="600">2</text>
    <text x="736" y="410" fill="#334155">Dog</text>
    <text x="880" y="410" fill="#334155">10/28/2025</text>
    <rect x="1020" y="392" width="74" height="28" rx="8" fill="#ECFEFF" stroke="#99F6E4" stroke-width="1.5"/>
    <text x="1035" y="411" fill="#0F172A" font-weight="700" font-size="13">Manage</text>
  </g>

  <g font-family="Inter, sans-serif" font-size="15">
    <rect x="72" y="432" width="1056" height="56" fill="#F8FAFC"/>
    <rect x="100" y="442" width="72" height="36" rx="8" fill="#E2E8F0"/>
    <text x="188" y="468" fill="#0F172A" font-weight="600">Indie</text>
    <rect x="408" y="446" width="66" height="28" rx="14" fill="#FEF9C3"/>
    <text x="420" y="466" fill="#92400E" font-weight="700" font-size="13">Hold</text>
    <text x="618" y="466" fill="#0F172A" font-weight="600">1</text>
    <text x="736" y="466" fill="#334155">Cat</text>
    <text x="880" y="466" fill="#334155">10/12/2025</text>
    <rect x="1020" y="448" width="74" height="28" rx="8" fill="#ECFEFF" stroke="#99F6E4" stroke-width="1.5"/>
    <text x="1035" y="467" fill="#0F172A" font-weight="700" font-size="13">Manage</text>
  </g>

  <g font-family="Inter, sans-serif" font-size="15">
    <rect x="72" y="488" width="1056" height="56" fill="#FFFFFF"/>
    <rect x="100" y="498" width="72" height="36" rx="8" fill="#E2E8F0"/>
    <text x="188" y="524" fill="#0F172A" font-weight="600">Aspen</text>
    <rect x="408" y="502" width="92" height="28" rx="14" fill="#E2E8F0"/>
    <text x="430" y="522" fill="#475569" font-weight="700" font-size="13">Adopted</text>
    <text x="618" y="522" fill="#0F172A" font-weight="600">4</text>
    <text x="736" y="522" fill="#334155">Dog</text>
    <text x="880" y="522" fill="#334155">09/22/2025</text>
    <rect x="1020" y="504" width="74" height="28" rx="8" fill="#ECFEFF" stroke="#99F6E4" stroke-width="1.5"/>
    <text x="1035" y="523" fill="#0F172A" font-weight="700" font-size="13">Manage</text>
  </g>

  <g font-family="Inter, sans-serif" font-size="15">
    <rect x="72" y="544" width="1056" height="56" fill="#F8FAFC"/>
    <rect x="100" y="554" width="72" height="36" rx="8" fill="#E2E8F0"/>
    <text x="188" y="580" fill="#0F172A" font-weight="600">Willow</text>
    <rect x="408" y="558" width="92" height="28" rx="14" fill="#DCFCE7"/>
    <text x="428" y="578" fill="#047857" font-weight="700" font-size="13">Available</text>
    <text x="618" y="578" fill="#0F172A" font-weight="600">0</text>
    <text x="736" y="578" fill="#334155">Cat</text>
    <text x="880" y="578" fill="#334155">09/10/2025</text>
    <rect x="1020" y="560" width="74" height="28" rx="8" fill="#ECFEFF" stroke="#99F6E4" stroke-width="1.5"/>
    <text x="1035" y="579" fill="#0F172A" font-weight="700" font-size="13">Manage</text>
  </g>
</svg>
